<?xml version="1.0" encoding="utf-8"?>
<!-- Generator: Adobe Illustrator 24.2.3, SVG Export Plug-In . SVG Version: 6.00 Build 0)  -->
<svg version="1.1" id="_xB7__xB9_ì´_xBE_x5F_1" xmlns="http://www.w3.org/2000/svg" xmlns:xlink="http://www.w3.org/1999/xlink"
	 x="0px" y="0px" viewBox="0 0 841.9 595.3" style="enable-background:new 0 0 841.9 595.3;" xml:space="preserve">
<style type="text/css">
	.st0{fill:#7C7266;}
</style>
<g>
	<polygon class="st0" points="382.1,292.8 382.1,310.8 424.3,310.8 424.3,357.6 409.9,357.6 409.9,323.3 325.2,323.3 325.2,310.8 
		367.7,310.8 367.7,292.8 316.4,292.8 316.4,280.4 409.2,280.4 409.2,255.5 326.8,255.5 326.8,243.1 423.7,243.1 423.7,280.3 
		434,280.3 434,292.8 	"/>
	<path class="st0" d="M502.4,289.9h-39.6v-32.5h39.6V289.9z M516.7,244.8h-68.3v57.6h68.3V244.8z"/>
	<polygon class="st0" points="552,357.1 461.5,357.1 461.5,314.8 475.9,314.8 475.9,344.7 552,344.7 	"/>
	<rect x="536.6" y="242" class="st0" width="14.3" height="75.7"/>
	<polygon class="st0" points="681.3,314.8 681.3,302.4 563.7,302.4 563.7,314.8 576.4,314.8 576.4,357.1 670.5,357.1 670.5,344.7 
		590.8,344.7 590.8,314.8 	"/>
	<path class="st0" d="M622.5,282.8c-14.9,0-26.9-5.1-26.9-16.7c0-11.4,12-16.6,26.9-16.6c14.8,0,26.9,5.2,26.9,16.6
		C649.4,277.7,637.3,282.8,622.5,282.8 M622.5,236.4c-23.2,0-42,9.8-42,29.8c0,19.8,18.8,29.8,42,29.8c23.2,0,42-10,42-29.8
		C664.5,246.2,645.7,236.4,622.5,236.4"/>
	<polygon class="st0" points="755.5,298.8 769.5,298.8 769.5,276 777.5,276 777.5,302.4 791.5,302.4 791.5,242 777.5,242 777.5,264 
		769.5,264 769.5,242 755.5,242 	"/>
	<path class="st0" d="M749.1,247.1h-25.4V237h-14.3v10.1h-25.6v12.2H694c-5.1,3.9-8.2,9.6-8.2,17.1c0,15.6,13.7,23.6,30.7,23.6
		c16.9,0,30.7-7.9,30.7-23.6c0-7.5-3.1-13.2-8.2-17.1h10.2V247.1z M716.4,286.8c-8.8,0-15.9-3.8-15.9-12.3c0-8.5,7.1-12.4,15.9-12.4
		c8.7,0,15.8,3.9,15.8,12.4C732.3,283,725.2,286.8,716.4,286.8"/>
	<path class="st0" d="M750.4,349.2c-14.7,0-26.6-5.1-26.6-16.7c0-11.5,11.9-16.7,26.6-16.7c14.7,0,26.6,5.2,26.6,16.7
		C777,344.1,765.1,349.2,750.4,349.2 M750.4,302.9c-22.9,0-41.5,9.7-41.5,29.6c0,19.7,18.5,29.6,41.5,29.6
		c22.9,0,41.4-9.9,41.4-29.6C791.9,312.7,773.3,302.9,750.4,302.9"/>
	<path class="st0" d="M183.7,243.3H240c26.8,0,40.8,8.9,40.8,28.4c0,13.8-9.6,23.4-22.5,25.9v0.5c18.4,2.2,27.1,14.3,27.1,27.9
		c0,17.1-12.5,31.9-43.7,31.9h-58.1V243.3z M202,291.6h37.2c13.8,0,24-5.2,24-17.4c0-10.7-5-17.8-26.1-17.8H202V291.6z M202,344.9
		h36c22.4,0,28.3-8.7,28.3-19.8c0-13.2-9.1-20.5-29.3-20.5H202V344.9z"/>
	<polygon class="st0" points="59.8,243.3 78.1,243.3 78.1,294.6 139.6,243.3 165.5,243.3 100.5,295.1 171,357.9 145.1,357.9 
		78.1,296.5 78.1,357.9 59.8,357.9 	"/>
</g>
</svg>
